<?xml version="1.0" standalone="no"?>
<!DOCTYPE svg PUBLIC "-//W3C//DTD SVG 20010904//EN"
 "http://www.w3.org/TR/2001/REC-SVG-20010904/DTD/svg10.dtd">
<svg version="1.0" xmlns="http://www.w3.org/2000/svg"
 width="700.000000pt" height="700.000000pt" viewBox="0 0 700.000000 700.000000"
 preserveAspectRatio="xMidYMid meet">
<metadata>
Created by potrace 1.14, written by Peter Selinger 2001-2017
</metadata>
<g transform="translate(0.000000,700.000000) scale(0.100000,-0.100000)"
fill="#000000" stroke="none">
<path d="M2564 5351 c-28 -16 -65 -47 -84 -68 -18 -21 -59 -66 -91 -99 -54
-56 -71 -85 -51 -83 4 0 48 29 97 64 50 36 136 96 193 135 56 39 102 73 102
76 0 2 -26 4 -57 4 -46 0 -69 -6 -109 -29z"/>
<path d="M3055 5285 c-99 -50 -337 -172 -530 -270 -363 -185 -383 -195 -426
-223 -15 -9 -65 -41 -110 -70 -46 -30 -124 -80 -174 -112 -49 -32 -121 -77
-158 -101 -37 -23 -84 -55 -104 -70 -31 -25 -33 -29 -14 -29 11 0 21 4 21 9 0
5 12 11 28 14 31 6 159 52 184 67 10 5 23 10 29 10 6 0 25 6 42 14 43 18 91
37 232 91 66 25 129 50 140 54 22 9 86 34 150 58 22 9 49 19 60 24 11 4 74 29
139 55 66 25 178 75 250 111 82 40 139 63 153 60 17 -3 23 0 23 14 0 22 20 25
38 7 10 -10 19 -9 45 3 17 9 57 24 87 34 30 10 59 22 65 26 5 5 15 9 23 9 8 0
28 6 45 14 43 18 91 37 232 91 66 25 129 50 140 54 11 5 39 16 63 25 89 34
128 49 157 61 17 7 58 23 93 35 34 13 62 24 62 26 0 2 -181 3 -402 3 l-403 -1
-180 -93z m678 78 c-7 -2 -19 -2 -25 0 -7 3 -2 5 12 5 14 0 19 -2 13 -5z m-53
-23 c0 -5 -7 -10 -16 -10 -8 0 -12 5 -9 10 3 6 10 10 16 10 5 0 9 -4 9 -10z
m-50 -30 c0 -5 -7 -10 -15 -10 -8 0 -15 5 -15 10 0 6 7 10 15 10 8 0 15 -4 15
-10z m-57 -27 c-7 -2 -19 -2 -25 0 -7 3 -2 5 12 5 14 0 19 -2 13 -5z m-60 -30
c-7 -2 -19 -2 -25 0 -7 3 -2 5 12 5 14 0 19 -2 13 -5z m-56 -29 c-3 -3 -12 -4
-19 -1 -8 3 -5 6 6 6 11 1 17 -2 13 -5z m-47 -24 c0 -5 -10 -10 -22 -10 -19 0
-20 2 -8 10 19 13 30 13 30 0z m-60 -30 c0 -5 -4 -10 -10 -10 -5 0 -10 5 -10
10 0 6 5 10 10 10 6 0 10 -4 10 -10z m-57 -27 c-7 -2 -19 -2 -25 0 -7 3 -2 5
12 5 14 0 19 -2 13 -5z m-56 -29 c-3 -3 -12 -4 -19 -1 -8 3 -5 6 6 6 11 1 17
-2 13 -5z m-54 -31 c-7 -2 -19 -2 -25 0 -7 3 -2 5 12 5 14 0 19 -2 13 -5z
m-53 -23 c0 -5 -7 -10 -16 -10 -8 0 -12 5 -9 10 3 6 10 10 16 10 5 0 9 -4 9
-10z m-50 -30 c0 -5 -7 -10 -15 -10 -8 0 -15 5 -15 10 0 6 7 10 15 10 8 0 15
-4 15 -10z"/>
<path d="M125 4146 c-64 -28 -70 -44 -73 -201 -3 -118 -1 -149 13 -178 34 -72
30 -71 413 -77 l344 -5 19 -24 c29 -36 25 -87 -10 -122 l-29 -29 -401 0 -401
0 0 -76 0 -75 483 3 c518 3 501 1 542 56 18 24 20 43 20 191 l0 163 -39 34
-39 34 -333 0 -332 0 -26 31 c-26 31 -31 53 -20 83 15 38 41 41 399 46 l350 5
0 75 0 75 -425 2 c-336 2 -431 0 -455 -11z"/>
<path d="M3667 4154 c-11 -12 -8 -624 4 -667 6 -21 28 -56 50 -78 l39 -39 298
2 297 3 3 61 c2 41 -1 64 -10 72 -9 7 -100 12 -256 14 l-243 3 -19 25 c-18 23
-20 47 -22 315 l-3 290 -65 3 c-36 2 -69 0 -73 -4z"/>
<path d="M4500 4124 c-22 -20 -40 -40 -40 -45 0 -5 28 -9 63 -9 55 1 66 4 95
30 49 45 43 60 -23 60 -49 0 -59 -4 -95 -36z"/>
<path d="M1122 4031 c-11 -6 -13 -58 -10 -257 3 -282 7 -297 89 -367 52 -45
89 -50 322 -46 l176 4 34 33 c19 19 47 56 61 82 l26 48 -2 254 -3 253 -54 3
c-108 6 -101 19 -101 -196 -1 -212 -6 -250 -48 -301 l-29 -36 -117 -3 -117 -3
-28 31 c-44 49 -51 89 -51 303 0 168 -2 196 -16 201 -23 9 -117 7 -132 -3z"/>
<path d="M1893 4033 c-21 -8 -18 -149 3 -157 9 -3 121 -6 250 -6 255 0 254 0
240 -55 l-6 -25 -228 0 c-125 0 -237 -3 -249 -6 -23 -6 -23 -7 -23 -210 l0
-203 44 -6 c24 -4 58 -4 75 0 l30 6 3 122 3 122 100 3 c114 3 91 20 208 -145
63 -89 76 -102 107 -107 34 -6 159 -1 166 7 4 3 -4 16 -105 155 -28 41 -51 81
-49 89 2 9 19 21 38 27 54 17 69 58 69 191 0 122 -15 170 -59 192 -19 9 -100
13 -315 12 -159 0 -296 -3 -302 -6z"/>
<path d="M2633 4033 c-9 -3 -13 -29 -13 -79 0 -87 -8 -83 155 -87 l110 -2 3
-246 2 -247 31 -6 c48 -9 84 -7 97 6 9 9 12 79 12 255 l0 242 148 3 147 3 3
74 c2 53 -1 77 -10 82 -14 9 -664 11 -685 2z"/>
<path d="M3373 4034 c-10 -4 -13 -81 -13 -334 l0 -327 31 -7 c44 -8 111 -7
127 2 9 7 12 81 10 338 l-3 329 -70 2 c-38 1 -76 -1 -82 -3z"/>
<path d="M4455 4031 l-30 -6 0 -325 0 -325 80 0 80 0 3 319 c1 186 -2 324 -7
329 -11 11 -85 16 -126 8z"/>
<path d="M4682 3953 l3 -78 234 -3 c152 -1 239 -6 248 -13 10 -9 13 -48 13
-156 l0 -145 -30 -29 -29 -30 -138 3 -138 3 -3 114 c-1 64 -8 121 -14 128 -7
8 -35 13 -79 13 l-69 0 0 -195 0 -195 270 0 c305 0 308 1 361 80 37 54 42 96
37 292 -4 181 -17 224 -77 267 -28 20 -41 21 -310 21 l-282 0 3 -77z"/>
<path d="M5550 4004 c-108 -61 -119 -90 -120 -297 0 -135 3 -164 19 -201 25
-55 65 -94 120 -117 40 -18 68 -19 325 -17 l281 3 3 69 c2 49 -1 72 -10 77 -7
5 -126 9 -264 9 -230 0 -252 2 -267 18 -18 20 -22 49 -9 69 6 9 75 13 267 15
l260 3 0 70 0 70 -259 3 c-162 1 -264 6 -272 13 -14 12 -1 63 19 77 7 4 125 9
262 12 l250 5 3 73 3 72 -283 0 -283 0 -45 -26z"/>
<path d="M6247 4023 c-10 -10 -8 -98 3 -127 l10 -26 243 0 c242 0 267 -3 267
-35 0 -6 -6 -20 -14 -31 -13 -18 -32 -19 -263 -24 l-248 -5 0 -200 0 -200 74
-3 c53 -2 77 1 82 10 5 7 9 63 9 124 0 126 -1 124 85 124 106 0 109 -2 208
-136 l91 -124 104 0 104 0 -27 33 c-65 78 -146 199 -143 214 2 9 18 21 36 27
59 20 72 55 72 189 0 125 -11 166 -49 187 -22 11 -633 15 -644 3z"/>
<path d="M4075 3025 c-127 -21 -317 -45 -351 -45 -16 0 -39 -6 -49 -14 -17
-12 -18 -18 -7 -54 14 -46 6 -74 -30 -112 -127 -133 -229 -251 -223 -259 9
-16 31 -13 45 4 7 8 20 15 30 15 10 0 23 7 30 15 7 8 21 15 30 15 10 0 20 4
22 8 4 10 189 102 205 102 6 0 13 4 15 8 2 5 39 26 83 48 44 21 82 41 85 44
11 11 72 40 85 40 7 0 18 7 25 15 7 8 21 15 31 15 11 0 19 4 19 10 0 5 12 13
27 16 15 4 33 13 40 20 7 7 18 14 25 16 7 3 12 25 12 54 l1 49 -35 2 c-19 0
-71 -5 -115 -12z"/>
<path d="M4176 2881 c-4 -6 -15 -11 -25 -11 -10 0 -24 -7 -31 -15 -7 -8 -21
-15 -30 -15 -10 0 -20 -3 -22 -7 -4 -11 -67 -43 -83 -43 -7 0 -18 -7 -25 -15
-7 -8 -21 -15 -31 -15 -11 0 -19 -4 -19 -10 0 -5 -12 -13 -27 -16 -16 -4 -30
-10 -33 -14 -8 -10 -132 -70 -145 -70 -7 0 -18 -7 -25 -15 -7 -8 -21 -15 -30
-15 -10 0 -20 -4 -22 -8 -1 -5 -39 -26 -83 -48 -44 -21 -81 -42 -83 -46 -2 -5
-12 -8 -22 -8 -10 0 -21 -4 -24 -9 -4 -5 -27 -19 -54 -32 -50 -23 -55 -28
-221 -209 -58 -63 -152 -167 -210 -230 -59 -63 -124 -135 -147 -160 -23 -25
-53 -58 -67 -74 -15 -16 -24 -32 -22 -37 3 -4 171 76 372 178 277 140 393 205
473 262 180 131 394 279 422 291 22 10 30 10 49 -4 48 -33 65 -23 89 57 12 39
25 83 29 97 5 14 16 52 26 85 9 33 23 77 31 99 13 38 5 83 -10 57z"/>
<path d="M4557 2815 c-18 -9 -22 -19 -20 -51 5 -67 22 -69 126 -16 51 25 94
47 96 49 22 16 -172 34 -202 18z"/>
<path d="M4910 2790 c-57 -16 -482 -238 -575 -299 -55 -36 -104 -68 -110 -71
-5 -3 -37 -23 -70 -44 -33 -21 -82 -54 -110 -71 -27 -18 -104 -67 -170 -110
-66 -42 -160 -103 -208 -134 -48 -31 -138 -89 -199 -128 -61 -40 -112 -73
-114 -73 -1 0 -38 -24 -81 -53 -44 -30 -87 -56 -96 -60 -9 -3 -17 -10 -17 -16
0 -5 -10 -12 -22 -16 -22 -7 -22 -8 -3 -12 11 -2 68 21 130 53 176 90 1355
688 1797 911 141 71 178 96 161 106 -4 3 -64 8 -133 12 -69 3 -132 8 -140 10
-8 2 -26 0 -40 -5z"/>
<path d="M5065 2561 c-543 -276 -1065 -541 -1447 -734 -186 -94 -338 -174
-338 -179 0 -14 439 -10 478 5 28 10 36 10 39 0 4 -10 39 -13 131 -13 107 1
137 5 192 24 69 24 451 170 485 185 11 5 38 15 60 24 71 26 129 49 162 63 58
26 91 18 141 -31 25 -25 53 -45 63 -45 21 0 43 29 95 128 22 40 44 81 49 90
15 25 107 196 154 284 22 43 38 84 35 92 -3 8 2 17 13 20 10 3 30 27 44 53 14
27 40 74 57 106 18 31 32 63 32 71 0 19 -33 46 -56 45 -10 0 -185 -85 -389
-188z m278 -128 c-7 -2 -19 -2 -25 0 -7 3 -2 5 12 5 14 0 19 -2 13 -5z m-58
-23 c3 -5 -1 -10 -10 -10 -9 0 -13 5 -10 10 3 6 8 10 10 10 2 0 7 -4 10 -10z
m-55 -30 c0 -5 -7 -10 -15 -10 -8 0 -15 5 -15 10 0 6 7 10 15 10 8 0 15 -4 15
-10z m-50 -24 c0 -11 -19 -15 -25 -6 -3 5 1 10 9 10 9 0 16 -2 16 -4z m-63
-32 c-3 -3 -12 -4 -19 -1 -8 3 -5 6 6 6 11 1 17 -2 13 -5z m-52 -24 c3 -6 -4
-10 -17 -10 -18 0 -20 2 -8 10 19 12 18 12 25 0z m-55 -30 c0 -5 -7 -10 -16
-10 -8 0 -12 5 -9 10 3 6 10 10 16 10 5 0 9 -4 9 -10z m-60 -30 c0 -5 -4 -10
-10 -10 -5 0 -10 5 -10 10 0 6 5 10 10 10 6 0 10 -4 10 -10z m-50 -24 c0 -11
-19 -15 -25 -6 -3 5 1 10 9 10 9 0 16 -2 16 -4z m-63 -32 c-3 -3 -12 -4 -19
-1 -8 3 -5 6 6 6 11 1 17 -2 13 -5z m-52 -24 c3 -5 -1 -10 -10 -10 -9 0 -13 5
-10 10 3 6 8 10 10 10 2 0 7 -4 10 -10z m-55 -30 c0 -5 -7 -10 -16 -10 -8 0
-12 5 -9 10 3 6 10 10 16 10 5 0 9 -4 9 -10z m-55 -30 c-3 -5 -10 -10 -16 -10
-5 0 -9 5 -9 10 0 6 7 10 16 10 8 0 12 -4 9 -10z m-55 -24 c0 -11 -19 -15 -25
-6 -3 5 1 10 9 10 9 0 16 -2 16 -4z m-53 -32 c-3 -3 -12 -4 -19 -1 -8 3 -5 6
6 6 11 1 17 -2 13 -5z m-62 -24 c3 -5 -1 -10 -10 -10 -9 0 -13 5 -10 10 3 6 8
10 10 10 2 0 7 -4 10 -10z m-55 -30 c0 -5 -4 -10 -10 -10 -5 0 -10 5 -10 10 0
6 5 10 10 10 6 0 10 -4 10 -10z m-55 -30 c-3 -5 -10 -10 -16 -10 -5 0 -9 5 -9
10 0 6 7 10 16 10 8 0 12 -4 9 -10z m-55 -24 c0 -3 -4 -8 -10 -11 -5 -3 -10
-1 -10 4 0 6 5 11 10 11 6 0 10 -2 10 -4z m-53 -32 c-3 -3 -12 -4 -19 -1 -8 3
-5 6 6 6 11 1 17 -2 13 -5z m-60 -30 c-3 -3 -12 -4 -19 -1 -8 3 -5 6 6 6 11 1
17 -2 13 -5z m-52 -24 c3 -5 -1 -10 -9 -10 -9 0 -16 5 -16 10 0 6 4 10 9 10 6
0 13 -4 16 -10z m-55 -30 c0 -5 -4 -10 -10 -10 -5 0 -10 5 -10 10 0 6 5 10 10
10 6 0 10 -4 10 -10z m-50 -24 c0 -2 -7 -6 -15 -10 -8 -3 -15 -1 -15 4 0 6 7
10 15 10 8 0 15 -2 15 -4z m-57 -33 c-7 -2 -19 -2 -25 0 -7 3 -2 5 12 5 14 0
19 -2 13 -5z m-56 -29 c-3 -3 -12 -4 -19 -1 -8 3 -5 6 6 6 11 1 17 -2 13 -5z
m-62 -24 c3 -5 -1 -10 -10 -10 -9 0 -13 5 -10 10 3 6 8 10 10 10 2 0 7 -4 10
-10z m-50 -30 c-3 -5 -10 -10 -16 -10 -5 0 -9 5 -9 10 0 6 7 10 16 10 8 0 12
-4 9 -10z"/>
<path d="M2773 1717 c-68 -34 -123 -65 -123 -69 0 -24 127 3 150 31 3 3 31 23
62 45 32 21 55 42 52 47 -8 13 -7 13 -141 -54z"/>
<path d="M3080 1680 c0 -5 4 -10 9 -10 6 0 13 5 16 10 3 6 -1 10 -9 10 -9 0
-16 -4 -16 -10z"/>
</g>
</svg>
