<svg width="64" height="38" viewBox="0 0 64 38" fill="none" xmlns="http://www.w3.org/2000/svg">
<path d="M37.5403 0.829416C45.8168 0.207686 52.1114 5.63488 53.3702 13.8387L53.6012 15.3445C53.8177 16.7558 54.408 18.0833 55.3108 19.1895L58.8329 23.5052C59.1017 23.8345 59.3422 24.1862 59.5623 24.5499C62.9557 30.157 65.0044 29.7156 63.4977 32.9645C61.9434 36.316 59.1747 37.9945 55.1915 38L9.53841 38C5.5493 38 2.77764 36.3215 1.22337 32.9645C-0.234534 29.8156 -0.696777 32.574 1.57306 30.7859C1.90807 30.522 2.19185 30.2002 2.45524 29.8648L9.62908 20.7294C10.465 19.6649 11.0172 18.4057 11.234 17.0697L13.5281 2.92931C13.8137 1.16905 14.9036 -0.0469899 16.6854 0.0256726C20.8347 0.194885 28.2733 1.13386 29.0407 0.829099C30.0749 0.41837 31.183 0.212998 32.365 0.212999C33.5469 0.212999 34.655 0.418371 35.6892 0.829099C35.9119 0.917535 36.5842 0.901243 37.5403 0.829416Z" fill="#3A93DF"/>
</svg>
