<svg width="29" height="46" viewBox="0 0 29 46" fill="none" xmlns="http://www.w3.org/2000/svg">
<path d="M17.234 0.363615C16.8071 0.724606 13.4862 6.99306 13.4862 6.99306L11.0152 16.4728L20.6301 15.6343C20.6301 15.6343 28.628 1.48795 28.7901 1.1608C29.0787 0.566672 29.2328 0.322251 28.1298 0.322251C27.0268 0.318491 17.6333 0.0251861 17.234 0.363615Z" fill="#176CC7"/>
<path d="M22.2115 15.0477C21.7331 14.8032 7.64292 14.5927 7.31082 15.0477C7.01036 15.4613 7.18036 17.631 7.29501 17.8905C7.50059 18.3417 12.051 20.3083 12.051 20.3083L11.9641 21.2033C11.9641 21.2033 12.3357 21.2936 14.9806 21.2936C17.6254 21.2936 18.1473 21.1657 18.1473 21.1657L18.1552 20.3572C18.1552 20.3572 22.251 18.462 22.4566 18.1988C22.6305 17.9807 22.6898 15.2921 22.2115 15.0477ZM18.0168 18.4771C18.0168 18.4771 18.1473 17.9243 17.8745 17.7965C17.6017 17.6648 12.9208 17.725 12.5492 17.7438C12.1776 17.7626 12.1776 18.3943 12.1776 18.3943L9.17291 16.6909V16.4127L20.3612 16.4879L20.381 16.8037L18.0168 18.4771Z" fill="#CECDD2"/>
<path d="M13.3478 18.0108C12.9762 18.0108 12.7627 18.3793 12.7627 19.0148C12.7627 19.6089 12.9762 20.1091 13.4466 20.0714C13.8341 20.0414 13.9685 19.4773 13.9329 18.9772C13.8973 18.3831 13.8182 18.0108 13.3478 18.0108Z" fill="#FDFFFF"/>
<path d="M1.3727 33.3228C1.3727 42.3325 10.0901 46.1568 15.7871 45.9951C22.425 45.8071 29.4305 41.0164 28.9759 32.4203C28.5449 24.2755 21.2824 20.6543 15.0438 20.6957C7.79315 20.7483 1.3727 25.4525 1.3727 33.3228Z" fill="#CECDD2"/>
<path d="M15.4313 44.318C15.3324 44.318 15.2296 44.318 15.1308 44.3142C12.1657 44.2202 9.23616 43.032 7.09338 41.0578C4.80037 38.9445 3.54316 36.0866 3.55897 33.0145C3.59456 25.5126 10.4894 22.0343 15.1664 22.0343H15.2059C21.5433 22.0607 26.7461 26.746 26.8924 33.0972C26.9556 35.925 25.738 38.8918 23.3501 41.1255C21.1203 43.2049 18.1631 44.318 15.4313 44.318ZM15.1585 23.2828C10.9638 23.2828 4.76083 26.5467 4.74502 33.0145C4.73316 37.8502 8.67082 42.8214 15.2296 43.032C17.7282 43.1072 20.3019 42.1972 22.3815 40.2531C24.5401 38.2338 25.7538 35.6317 25.7103 33.1122C25.6075 27.6485 20.9108 23.3016 15.2099 23.2752C15.202 23.2752 15.1703 23.2828 15.1585 23.2828Z" fill="#9B9B9D"/>
<path d="M12.8852 21.8839C12.6124 21.5267 9.81733 21.6282 6.80873 24.0912C3.8199 26.5392 3.37316 29.2466 3.91083 29.3895C4.52362 29.5512 5.27083 26.934 7.85245 24.7342C10.2245 22.7225 13.4268 22.5946 12.8852 21.8839ZM24.6626 31.7548C23.7098 31.8826 24.6982 34.5976 22.4882 37.6359C20.5708 40.2719 18.3964 41.227 18.6494 41.8061C18.9894 42.5807 22.4724 40.6517 24.0854 37.508C25.5442 34.6652 25.3703 31.6608 24.6626 31.7548Z" fill="#FEFFFA"/>
<path d="M0.00480142 0.168078C-0.244268 0.386177 9.27965 16.5179 9.27965 16.5179C9.27965 16.5179 10.8769 16.7135 14.4429 16.7436C18.0089 16.7736 19.7761 16.548 19.7761 16.548C19.7761 16.548 12.3713 0.329772 11.9285 0.168078C11.711 0.0853513 8.77756 0.0552687 5.91129 0.0251861C3.04107 -0.00865674 0.24201 -0.0424996 0.00480142 0.168078Z" fill="#2E9DF4"/>
<path d="M12.395 31.2396C12.8062 31.2434 13.1738 30.7132 13.5138 30.3898C14.2373 29.6979 14.9964 29.1489 15.8622 29.8934C17.9892 31.7322 13.7194 33.5973 12.0985 36.1468C10.8887 38.0495 10.6436 39.5123 10.9796 39.9034C11.3157 40.2944 19.4954 40.2756 19.6061 40.0801C19.7168 39.8846 19.8315 37.2787 19.6417 37.1546C19.4519 37.0305 15.4313 37.1019 15.4313 37.1019C15.4313 37.1019 15.7673 36.3574 17.1471 35.2218C18.6613 33.9771 19.875 32.2662 19.5508 30.2431C18.8787 26.0616 14.4508 25.9075 12.5334 27.3627C10.6634 28.7803 11.0666 31.2246 12.395 31.2396Z" fill="#9B9B9D"/>
</svg>
