<svg width="29" height="46" viewBox="0 0 29 46" fill="none" xmlns="http://www.w3.org/2000/svg">
<path d="M17.234 0.365845C16.8071 0.729049 13.4862 7.03594 13.4862 7.03594L11.0152 16.5738L20.6301 15.7302C20.6301 15.7302 28.628 1.49708 28.7901 1.16792C29.0787 0.570147 29.2328 0.324228 28.1298 0.324228C27.0268 0.320444 17.6333 0.0253405 17.234 0.365845Z" fill="#176CC7"/>
<path d="M22.2115 15.1399C21.7331 14.894 7.64292 14.6822 7.31082 15.1399C7.01036 15.5561 7.05385 17.4592 7.20013 17.7051C7.3464 17.951 12.0827 20.0583 12.0827 20.0583L12.0787 20.8264C12.0787 20.8264 12.3396 21.4279 14.9806 21.4279C17.6215 21.4279 17.8943 20.9172 17.8943 20.9172L17.918 20.1416C17.918 20.1416 22.0652 18.1591 22.2826 17.985C22.504 17.8072 22.6898 15.3859 22.2115 15.1399ZM17.8706 18.2915C17.8706 18.2915 17.8587 17.7618 17.5859 17.6294C17.3131 17.497 12.9208 17.5197 12.5492 17.5386C12.1776 17.5575 12.1776 18.1931 12.1776 18.1931L9.17291 16.7933V16.5133L20.3612 16.589L20.381 16.9068L17.8706 18.2915Z" fill="#FCC417"/>
<path d="M13.3478 18.1212C12.9762 18.1212 12.7627 18.492 12.7627 19.1314C12.7627 19.7292 12.9762 20.2324 13.4466 20.1945C13.8341 20.1643 13.9685 19.5968 13.9329 19.0936C13.8973 18.4958 13.8182 18.1212 13.3478 18.1212Z" fill="#FDFFFF"/>
<path d="M1.37666 33.0845C1.37666 42.1495 9.93988 46.1864 15.6329 45.9934C21.911 45.7778 29.4305 41.0939 28.9759 32.4451C28.5449 24.2503 21.3417 20.3648 15.1031 20.4064C7.85245 20.4556 1.37666 25.1659 1.37666 33.0845Z" fill="#FCC417"/>
<path d="M15.4313 44.4157C15.3324 44.4157 15.2296 44.4157 15.1308 44.412C12.1657 44.3174 9.23616 43.1218 7.09338 41.1355C4.80037 39.0093 3.54316 36.1339 3.55897 33.0429C3.59456 25.4951 10.4894 21.9954 15.1664 21.9954H15.2059C21.5433 22.0219 26.7461 26.736 26.8924 33.1261C26.9556 35.9712 25.738 38.9563 23.3501 41.2036C21.1203 43.2959 18.1631 44.4157 15.4313 44.4157ZM15.1585 23.2515C10.9638 23.2515 4.76083 26.5355 4.74502 33.0429C4.73316 37.9083 8.67082 42.91 15.2296 43.1218C17.7282 43.1975 20.3019 42.2819 22.3815 40.3259C24.5401 38.2942 25.7538 35.6761 25.7103 33.1413C25.6154 27.644 20.9187 23.2704 15.2178 23.2477C15.202 23.2477 15.1703 23.2515 15.1585 23.2515Z" fill="#FA912C"/>
<path d="M12.7785 21.6928C12.5057 21.3333 9.41407 21.4014 6.49245 24.133C3.67363 26.7701 3.36921 29.2557 3.91083 29.3995C4.52362 29.5622 5.27083 26.929 7.85245 24.7157C10.2245 22.6878 13.3241 22.4078 12.7785 21.6928ZM24.7377 31.4804C23.785 31.609 24.7733 34.3406 22.5633 37.3976C20.6459 40.0497 18.4715 41.0107 18.7245 41.5933C19.0645 42.3727 22.5475 40.4318 24.1605 37.2689C25.6233 34.4049 25.4494 31.382 24.7377 31.4804Z" fill="#FEFFFA"/>
<path d="M11.9996 27.9013C11.7941 28.1926 11.9799 30.7464 12.1024 30.8599C12.3396 31.0869 14.1424 30.2735 14.1424 30.2735L14.0752 37.1025C14.0752 37.1025 12.7508 37.0873 12.6124 37.1365C12.3396 37.2349 12.3752 39.8681 12.5769 39.9967C12.7785 40.1254 18.1829 40.1935 18.3885 39.9324C18.594 39.6714 18.5426 37.3673 18.4478 37.2614C18.2778 37.0646 16.985 37.1441 16.985 37.1441C16.985 37.1441 17.0957 27.0879 17.0601 26.7663C17.0245 26.4447 16.6529 26.2442 16.2101 26.3425C15.7673 26.4409 12.1301 27.7121 11.9996 27.9013Z" fill="#FA912C"/>
<path d="M0.00480142 0.169109C-0.244268 0.388545 9.27965 16.6192 9.27965 16.6192C9.27965 16.6192 10.8769 16.816 14.4429 16.8462C18.0089 16.8765 19.7761 16.6495 19.7761 16.6495C19.7761 16.6495 12.3713 0.331794 11.9285 0.169109C11.711 0.0858747 8.77756 0.0556076 5.91129 0.0253406C3.04107 -0.00870983 0.24201 -0.0427602 0.00480142 0.169109Z" fill="#2E9DF4"/>
</svg>
