<svg width="29" height="46" viewBox="0 0 29 46" fill="none" xmlns="http://www.w3.org/2000/svg">
<path d="M17.2281 0.363614C16.8013 0.724604 13.4815 6.99304 13.4815 6.99304L11.0114 16.4728L20.623 15.6342C20.623 15.6342 28.6181 1.48795 28.7801 1.1608C29.0686 0.566671 29.2228 0.322251 28.1201 0.322251C27.0175 0.318491 17.6273 0.0251861 17.2281 0.363614Z" fill="#176CC7"/>
<path d="M22.2038 15.0476C21.7256 14.8032 7.64028 14.5926 7.3083 15.0476C7.00794 15.4613 7.17788 17.631 7.29249 17.8904C7.498 18.3417 12.0469 20.3083 12.0469 20.3083L11.9599 21.2033C11.9599 21.2033 12.3314 21.2935 14.9754 21.2935C17.6194 21.2935 18.141 21.1657 18.141 21.1657L18.1489 20.3572C18.1489 20.3572 22.2433 18.462 22.4488 18.1988C22.6227 17.9807 22.682 15.2921 22.2038 15.0476ZM18.0106 18.477C18.0106 18.477 18.141 17.9243 17.8683 17.7964C17.5956 17.6648 12.9163 17.725 12.5448 17.7438C12.1734 17.7626 12.1734 18.3943 12.1734 18.3943L9.22508 16.9503L9.16975 16.4126L20.3542 16.4878L20.3147 16.9955L18.0106 18.477Z" fill="#F79429"/>
<path d="M13.3432 18.2815C12.9717 18.2815 12.7583 18.65 12.7583 19.2855C12.7583 19.8796 12.9717 20.3798 13.442 20.3422C13.8293 20.3121 13.9637 19.748 13.9281 19.2479C13.8925 18.65 13.8135 18.2815 13.3432 18.2815Z" fill="#FDFFFF"/>
<path d="M1.5066 33.398C1.5066 42.4077 10.0866 46.1567 15.7816 45.995C22.4172 45.807 29.5547 41.0163 28.9659 32.4203C28.4126 24.3544 21.2751 20.6543 15.0386 20.6956C7.79046 20.7483 1.5066 25.5276 1.5066 33.398Z" fill="#F79429"/>
<path d="M15.4813 44.6338C15.3825 44.6338 15.2797 44.6338 15.1809 44.63C12.2168 44.536 9.28831 43.3477 7.14627 41.3736C4.85404 39.2603 3.59727 36.4024 3.61308 33.3303C3.64865 25.8284 10.5411 22.3502 15.2165 22.3502H15.256C21.5912 22.3765 26.7922 27.0618 26.9384 33.413C27.0017 36.2408 26.0532 39.0535 23.6661 41.2871C21.4371 43.3628 18.2122 44.6338 15.4813 44.6338ZM15.2086 23.5986C11.0154 23.5986 4.81452 26.8625 4.79871 33.3303C4.78685 38.166 8.72316 43.1372 15.2797 43.3477C17.7774 43.4229 20.5953 42.543 22.6702 40.6027C24.828 38.5834 25.7963 35.9512 25.7528 33.4318C25.658 27.9681 20.9628 23.6211 15.2639 23.5986C15.252 23.5911 15.2204 23.5986 15.2086 23.5986Z" fill="#D25116"/>
<path d="M12.8808 21.8839C12.6081 21.5266 9.81394 21.6282 6.80638 24.0912C3.81859 26.5391 3.372 29.2466 3.90948 29.3895C4.52206 29.5512 5.26901 26.934 7.84974 24.7342C10.221 22.7224 13.4222 22.5946 12.8808 21.8839ZM24.8912 31.7246C23.9388 31.8525 24.9268 34.5674 22.7176 37.6057C20.8008 40.2417 18.6271 41.1968 18.8801 41.7759C19.22 42.5506 22.7018 40.6215 24.3142 37.4779C25.7726 34.6313 25.5987 31.6268 24.8912 31.7246Z" fill="#FEFFFA"/>
<path d="M0.00479977 0.168078C-0.244183 0.386176 9.27645 16.5179 9.27645 16.5179C9.27645 16.5179 10.8731 16.7134 14.4379 16.7435C18.0027 16.7736 19.7693 16.548 19.7693 16.548C19.7693 16.548 12.367 0.329771 11.9244 0.168078C11.707 0.0853511 8.77454 0.0552686 5.90925 0.0251861C3.04002 -0.00865672 0.241926 -0.0424995 0.00479977 0.168078Z" fill="#2E9DF4"/>
<path d="M19.544 30.2468C19.0856 26.4677 14.4616 26.1518 12.5448 27.6033C10.6795 29.0172 10.8573 30.9876 12.1654 31.217C13.1969 31.3975 13.4657 30.6191 13.7661 30.2619C14.4458 29.4609 15.5287 29.3857 16.2361 30.0287C17.0384 30.762 16.5444 32.5143 15.339 32.5857C14.4419 32.6384 13.9874 32.5932 13.8728 32.7399C13.7107 32.9467 13.7344 34.5749 13.9004 34.7554C14.0901 34.9622 14.8489 34.8344 15.501 34.857C16.3982 34.8908 17.3506 36.1543 16.7222 37.1019C16.0701 38.0833 14.3352 37.6433 13.7107 37.0492C12.8847 36.2633 12.0587 36.7145 11.7821 37.0229C11.3474 37.5117 10.885 38.6248 12.4895 39.7078C14.0901 40.7907 18.9473 40.9975 19.9274 37.6433C20.781 34.7141 18.7892 33.5108 18.7892 33.5108C18.7892 33.5108 19.8049 32.4015 19.544 30.2468Z" fill="#D25116"/>
</svg>
